<svg width="4" height="12" viewBox="0 0 4 12" fill="none" xmlns="http://www.w3.org/2000/svg">
<path d="M3.078 10.476C2.718 10.908 2.268 11.124 1.728 11.124C1.188 11.124 0.762 10.986 0.45 10.71C0.15 10.434 0 10.074 0 9.63C0 9.474 0.0959999 8.82 0.288 7.668L0.882 4.446H0.126L0.162 4.122H0.936C1.824 4.122 2.478 4.086 2.898 4.014L3.15 3.96L1.908 10.764C2.268 10.728 2.568 10.56 2.808 10.26L3.078 10.476ZM1.494 2.232C1.242 1.98 1.116 1.674 1.116 1.314C1.116 0.954 1.242 0.648 1.494 0.396C1.746 0.132 2.052 0 2.412 0C2.772 0 3.078 0.132 3.33 0.396C3.594 0.648 3.726 0.954 3.726 1.314C3.726 1.674 3.594 1.98 3.33 2.232C3.078 2.484 2.772 2.61 2.412 2.61C2.052 2.61 1.746 2.484 1.494 2.232Z" fill="#495057"/>
</svg>
